<svg xmlns="http://www.w3.org/2000/svg" viewBox="-18 -18 886 271" font-family="Georgia, serif">
  <defs>
    <marker id="a" markerWidth="8" markerHeight="8" refX="6" refY="3" orient="auto">
      <path d="M0,0 L0,6 L8,3 z" fill="#475569"/>
    </marker>
    <marker id="ao" markerWidth="8" markerHeight="8" refX="6" refY="3" orient="auto">
      <path d="M0,0 L0,6 L8,3 z" fill="#d4622b"/>
    </marker>
    <marker id="ag" markerWidth="7" markerHeight="7" refX="5" refY="3" orient="auto">
      <path d="M0,0 L0,6 L7,3 z" fill="#10b981"/>
    </marker>
    <marker id="ai" markerWidth="7" markerHeight="7" refX="5" refY="3" orient="auto">
      <path d="M0,0 L0,6 L7,3 z" fill="#6366f1"/>
    </marker>
    <marker id="ar" markerWidth="7" markerHeight="7" refX="5" refY="3" orient="auto">
      <path d="M0,0 L0,6 L7,3 z" fill="#ef4444"/>
    </marker>
  </defs>

  <rect x="-18" y="-18" width="886" height="271" fill="#ffffff" rx="6"/>

  <!-- ── Step numbers ── -->
  <circle cx="84"  cy="15" r="9" fill="#d4622b"/><text x="84"  y="19" text-anchor="middle" font-size="9" fill="#fff" font-weight="bold">1</text>
  <circle cx="232" cy="15" r="9" fill="#10b981"/><text x="232" y="19" text-anchor="middle" font-size="9" fill="#fff" font-weight="bold">2</text>
  <circle cx="390" cy="15" r="9" fill="#6366f1"/><text x="390" y="19" text-anchor="middle" font-size="9" fill="#fff" font-weight="bold">3</text>
  <circle cx="564" cy="15" r="9" fill="#475569"/><text x="564" y="19" text-anchor="middle" font-size="9" fill="#fff" font-weight="bold">4</text>
  <circle cx="758" cy="15" r="9" fill="#475569"/><text x="758" y="19" text-anchor="middle" font-size="9" fill="#fff" font-weight="bold">5</text>

  <!-- ══════ BOX 1: PRIOR ══════ -->
  <rect x="10" y="26" width="148" height="198" rx="7" fill="#fff7ed" stroke="#d4622b" stroke-width="1.8"/>
  <text x="84" y="44" text-anchor="middle" font-size="10" fill="#d4622b" font-weight="bold">PRIOR</text>
  <text x="84" y="56" text-anchor="middle" font-size="7" fill="#9a3412" font-style="italic">6 skill dimensions</text>

  <g transform="translate(9,0)">
  <!-- skill row labels -->
  <text x="20" y="72"  text-anchor="middle" font-size="6.5" fill="#9a3412">s₁</text>
  <text x="20" y="87"  text-anchor="middle" font-size="6.5" fill="#9a3412">s₂</text>
  <text x="20" y="102" text-anchor="middle" font-size="6.5" fill="#9a3412">s₃</text>
  <text x="20" y="117" text-anchor="middle" font-size="6.5" fill="#9a3412">s₄</text>
  <text x="20" y="132" text-anchor="middle" font-size="6.5" fill="#9a3412">s₅</text>
  <text x="20" y="147" text-anchor="middle" font-size="6.5" fill="#9a3412">s₆</text>

  <!-- 6 skill bars with shaded uncertainty intervals -->
  <rect x="29" y="65"  width="92" height="9" rx="2" fill="#fed7aa" opacity="0.45"/><rect x="29" y="65"  width="66" height="9" rx="2" fill="#d4622b" opacity="0.75"/>
  <rect x="29" y="80"  width="92" height="9" rx="2" fill="#fed7aa" opacity="0.45"/><rect x="29" y="80"  width="48" height="9" rx="2" fill="#d4622b" opacity="0.65"/>
  <rect x="29" y="95"  width="92" height="9" rx="2" fill="#fed7aa" opacity="0.45"/><rect x="29" y="95"  width="72" height="9" rx="2" fill="#d4622b" opacity="0.70"/>
  <rect x="29" y="110" width="92" height="9" rx="2" fill="#fed7aa" opacity="0.45"/><rect x="29" y="110" width="38" height="9" rx="2" fill="#d4622b" opacity="0.60"/>
  <rect x="29" y="125" width="92" height="9" rx="2" fill="#fed7aa" opacity="0.45"/><rect x="29" y="125" width="56" height="9" rx="2" fill="#d4622b" opacity="0.67"/>
  <rect x="29" y="140" width="92" height="9" rx="2" fill="#fed7aa" opacity="0.45"/><rect x="29" y="140" width="42" height="9" rx="2" fill="#d4622b" opacity="0.62"/>
  </g>


  <!-- person icon (SVG, no emoji) -->
  <circle cx="84" cy="200" r="12" fill="#d4622b" opacity="0.18" stroke="#d4622b" stroke-width="1.2"/>
  <circle cx="84" cy="197" r="3" fill="#d4622b" opacity="0.7"/>
  <path d="M78,207 Q78,202 84,202 Q90,202 90,207 Z" fill="#d4622b" opacity="0.7"/>

  <!-- arrow 1→2 -->
  <line x1="158" y1="125" x2="170" y2="125" stroke="#475569" stroke-width="1.6" marker-end="url(#a)"/>

  <!-- ══════ BOX 2: OBSERVE ══════ -->
  <rect x="172" y="26" width="120" height="198" rx="7" fill="#f0fdf4" stroke="#10b981" stroke-width="1.8"/>
  <text x="232" y="44" text-anchor="middle" font-size="10" fill="#059669" font-weight="bold">OBSERVE</text>

  <!-- task requirement mini-bars (only skill 1 active) -->
  <rect x="186" y="54" width="92" height="78" rx="4" fill="#fff" stroke="#10b981" stroke-width="0.8"/>
  <text x="195" y="70"  text-anchor="middle" font-size="6" fill="#047857">s₁</text>
  <text x="195" y="80"  text-anchor="middle" font-size="6" fill="#047857">s₂</text>
  <text x="195" y="90"  text-anchor="middle" font-size="6" fill="#047857">s₃</text>
  <text x="195" y="100" text-anchor="middle" font-size="6" fill="#047857">s₄</text>
  <text x="195" y="110" text-anchor="middle" font-size="6" fill="#047857">s₅</text>
  <text x="195" y="120" text-anchor="middle" font-size="6" fill="#047857">s₆</text>
  <rect x="202" y="65"  width="68" height="6" rx="2" fill="#e2e8f0"/>
  <rect x="202" y="65"  width="56" height="6" rx="2" fill="#10b981"/>
  <rect x="202" y="75"  width="68" height="6" rx="2" fill="#e2e8f0"/>
  <rect x="202" y="85"  width="68" height="6" rx="2" fill="#e2e8f0"/>
  <rect x="202" y="95"  width="68" height="6" rx="2" fill="#e2e8f0"/>
  <rect x="202" y="105" width="68" height="6" rx="2" fill="#e2e8f0"/>
  <rect x="202" y="115" width="68" height="6" rx="2" fill="#e2e8f0"/>

  <!-- observed outcome pill -->
  <rect x="188" y="170" width="88" height="26" rx="5" fill="#dcfce7" stroke="#10b981" stroke-width="1.2"/>
  <text x="232" y="187" text-anchor="middle" font-size="10" fill="#059669" font-weight="bold">y = 0.84</text>

  <!-- arrow 2→3 (into Σ box) -->
  <line x1="292" y1="125" x2="306" y2="125" stroke="#475569" stroke-width="1.6" marker-end="url(#a)"/>

  <!-- ══════ BOX 3: KALMAN Σ ══════ -->
  <rect x="308" y="26" width="162" height="198" rx="7" fill="#eef2ff" stroke="#6366f1" stroke-width="1.8"/>
  <text x="389" y="44" text-anchor="middle" font-size="10" fill="#6366f1" font-weight="bold">SKILL TRANSFER UPDATE</text>

  <g transform="translate(10,0)">
  <!-- column labels above matrix -->
  <text x="334" y="68" text-anchor="middle" font-size="6" fill="#6366f1">s₁</text>
  <text x="352" y="68" text-anchor="middle" font-size="6" fill="#6366f1">s₂</text>
  <text x="370" y="68" text-anchor="middle" font-size="6" fill="#6366f1">s₃</text>
  <text x="388" y="68" text-anchor="middle" font-size="6" fill="#6366f1">s₄</text>
  <text x="406" y="68" text-anchor="middle" font-size="6" fill="#6366f1">s₅</text>
  <text x="424" y="68" text-anchor="middle" font-size="6" fill="#6366f1">s₆</text>

  <!-- row labels left of matrix -->
  <text x="320" y="84"  text-anchor="middle" font-size="6" fill="#6366f1">s₁</text>
  <text x="320" y="102" text-anchor="middle" font-size="6" fill="#6366f1">s₂</text>
  <text x="320" y="120" text-anchor="middle" font-size="6" fill="#6366f1">s₃</text>
  <text x="320" y="138" text-anchor="middle" font-size="6" fill="#6366f1">s₄</text>
  <text x="320" y="156" text-anchor="middle" font-size="6" fill="#6366f1">s₅</text>
  <text x="320" y="174" text-anchor="middle" font-size="6" fill="#6366f1">s₆</text>

  <!-- 6×6 Σ heatmap; row 0 = observed skill (highlighted green) -->
  <!-- cell size 16×16, starts at x=326, y=72 -->
  <!-- row 0: OBSERVED skill -->
  <rect x="326" y="72" width="16" height="16" fill="#10b981" opacity="0.90"/>
  <rect x="344" y="72" width="16" height="16" fill="#6366f1" opacity="0.62"/>
  <rect x="362" y="72" width="16" height="16" fill="#6366f1" opacity="0.45"/>
  <rect x="380" y="72" width="16" height="16" fill="#6366f1" opacity="0.70"/>
  <rect x="398" y="72" width="16" height="16" fill="#6366f1" opacity="0.28"/>
  <rect x="416" y="72" width="16" height="16" fill="#ef4444" opacity="0.55"/>

  <!-- row 1 -->
  <rect x="326" y="90" width="16" height="16" fill="#6366f1" opacity="0.62"/>
  <rect x="344" y="90" width="16" height="16" fill="#6366f1" opacity="0.88"/>
  <rect x="362" y="90" width="16" height="16" fill="#6366f1" opacity="0.52"/>
  <rect x="380" y="90" width="16" height="16" fill="#6366f1" opacity="0.38"/>
  <rect x="398" y="90" width="16" height="16" fill="#6366f1" opacity="0.22"/>
  <rect x="416" y="90" width="16" height="16" fill="#ef4444" opacity="0.30"/>

  <!-- row 2 -->
  <rect x="326" y="108" width="16" height="16" fill="#6366f1" opacity="0.45"/>
  <rect x="344" y="108" width="16" height="16" fill="#6366f1" opacity="0.52"/>
  <rect x="362" y="108" width="16" height="16" fill="#6366f1" opacity="0.88"/>
  <rect x="380" y="108" width="16" height="16" fill="#6366f1" opacity="0.62"/>
  <rect x="398" y="108" width="16" height="16" fill="#6366f1" opacity="0.33"/>
  <rect x="416" y="108" width="16" height="16" fill="#ef4444" opacity="0.25"/>

  <!-- row 3 -->
  <rect x="326" y="126" width="16" height="16" fill="#6366f1" opacity="0.70"/>
  <rect x="344" y="126" width="16" height="16" fill="#6366f1" opacity="0.38"/>
  <rect x="362" y="126" width="16" height="16" fill="#6366f1" opacity="0.62"/>
  <rect x="380" y="126" width="16" height="16" fill="#6366f1" opacity="0.88"/>
  <rect x="398" y="126" width="16" height="16" fill="#6366f1" opacity="0.48"/>
  <rect x="416" y="126" width="16" height="16" fill="#ef4444" opacity="0.35"/>

  <!-- row 4 -->
  <rect x="326" y="144" width="16" height="16" fill="#6366f1" opacity="0.28"/>
  <rect x="344" y="144" width="16" height="16" fill="#6366f1" opacity="0.22"/>
  <rect x="362" y="144" width="16" height="16" fill="#6366f1" opacity="0.33"/>
  <rect x="380" y="144" width="16" height="16" fill="#6366f1" opacity="0.48"/>
  <rect x="398" y="144" width="16" height="16" fill="#6366f1" opacity="0.88"/>
  <rect x="416" y="144" width="16" height="16" fill="#ef4444" opacity="0.50"/>

  <!-- row 5: anti-correlated -->
  <rect x="326" y="162" width="16" height="16" fill="#ef4444" opacity="0.55"/>
  <rect x="344" y="162" width="16" height="16" fill="#ef4444" opacity="0.30"/>
  <rect x="362" y="162" width="16" height="16" fill="#ef4444" opacity="0.25"/>
  <rect x="380" y="162" width="16" height="16" fill="#ef4444" opacity="0.35"/>
  <rect x="398" y="162" width="16" height="16" fill="#ef4444" opacity="0.50"/>
  <rect x="416" y="162" width="16" height="16" fill="#6366f1" opacity="0.88"/>
  </g>

  <!-- Σ label below matrix -->
  <text x="389" y="194" text-anchor="middle" font-size="14" fill="#6366f1" font-weight="bold">Σ</text>

  <!-- single clean propagation arrow from Σ to Posterior -->
  <line x1="470" y1="125" x2="488" y2="125" stroke="#475569" stroke-width="1.6" marker-end="url(#a)"/>

  <!-- ══════ BOX 4: POSTERIOR ══════ -->
  <rect x="488" y="26" width="148" height="198" rx="7" fill="#f8fafc" stroke="#475569" stroke-width="1.5"/>
  <text x="562" y="44" text-anchor="middle" font-size="10" fill="#334155" font-weight="bold">POSTERIOR</text>
  <text x="562" y="56" text-anchor="middle" font-size="7" fill="#64748b" font-style="italic">6 skill dimensions</text>

  <g transform="translate(12,0)">
  <!-- skill row labels -->
  <text x="497" y="72"  text-anchor="middle" font-size="6.5" fill="#475569">s₁</text>
  <text x="497" y="87"  text-anchor="middle" font-size="6.5" fill="#475569">s₂</text>
  <text x="497" y="102" text-anchor="middle" font-size="6.5" fill="#475569">s₃</text>
  <text x="497" y="117" text-anchor="middle" font-size="6.5" fill="#475569">s₄</text>
  <text x="497" y="132" text-anchor="middle" font-size="6.5" fill="#475569">s₅</text>
  <text x="497" y="147" text-anchor="middle" font-size="6.5" fill="#475569">s₆</text>

  <!-- 6 updated bars — same y as prior bars (65,80,95,110,125,140) -->
  <!-- skill 1: observed, very tight CI, emerald -->
  <rect x="502" y="65"  width="96" height="9" rx="2" fill="#dcfce7" opacity="0.5"/>
  <rect x="502" y="65"  width="70" height="9" rx="2" fill="#10b981" opacity="0.85"/>
  <line x1="572" y1="63" x2="572" y2="76" stroke="#10b981" stroke-width="1.2"/>
  <line x1="570" y1="63" x2="574" y2="63" stroke="#10b981" stroke-width="1"/>
  <line x1="570" y1="76" x2="574" y2="76" stroke="#10b981" stroke-width="1"/>
  <!-- checkmark: simple polyline -->
  <polyline points="580,68 583,72 589,64" fill="none" stroke="#10b981" stroke-width="1.5" stroke-linecap="round"/>

  <!-- skills 2-5: updated via Σ, tighter CI, indigo -->
  <rect x="502" y="80"  width="96" height="9" rx="2" fill="#e0e7ff" opacity="0.4"/>
  <rect x="502" y="80"  width="52" height="9" rx="2" fill="#6366f1" opacity="0.65"/>
  <line x1="554" y1="78" x2="554" y2="91" stroke="#6366f1" stroke-width="1.2"/>
  <line x1="551" y1="78" x2="557" y2="78" stroke="#6366f1" stroke-width="1"/>
  <line x1="551" y1="91" x2="557" y2="91" stroke="#6366f1" stroke-width="1"/>

  <rect x="502" y="95"  width="96" height="9" rx="2" fill="#e0e7ff" opacity="0.4"/>
  <rect x="502" y="95"  width="78" height="9" rx="2" fill="#6366f1" opacity="0.62"/>
  <line x1="580" y1="93" x2="580" y2="106" stroke="#6366f1" stroke-width="1.2"/>
  <line x1="577" y1="93" x2="583" y2="93" stroke="#6366f1" stroke-width="1"/>
  <line x1="577" y1="106" x2="583" y2="106" stroke="#6366f1" stroke-width="1"/>

  <rect x="502" y="110" width="96" height="9" rx="2" fill="#e0e7ff" opacity="0.4"/>
  <rect x="502" y="110" width="42" height="9" rx="2" fill="#6366f1" opacity="0.58"/>
  <line x1="544" y1="108" x2="544" y2="121" stroke="#6366f1" stroke-width="1.2"/>
  <line x1="541" y1="108" x2="547" y2="108" stroke="#6366f1" stroke-width="1"/>
  <line x1="541" y1="121" x2="547" y2="121" stroke="#6366f1" stroke-width="1"/>

  <rect x="502" y="125" width="96" height="9" rx="2" fill="#e0e7ff" opacity="0.4"/>
  <rect x="502" y="125" width="60" height="9" rx="2" fill="#6366f1" opacity="0.60"/>
  <line x1="562" y1="123" x2="562" y2="136" stroke="#6366f1" stroke-width="1.2"/>
  <line x1="559" y1="123" x2="565" y2="123" stroke="#6366f1" stroke-width="1"/>
  <line x1="559" y1="136" x2="565" y2="136" stroke="#6366f1" stroke-width="1"/>

  <!-- skill 6: anti-correlated, red, pushed lower -->
  <rect x="502" y="140" width="96" height="9" rx="2" fill="#fee2e2" opacity="0.4"/>
  <rect x="502" y="140" width="36" height="9" rx="2" fill="#ef4444" opacity="0.52"/>
  <line x1="538" y1="138" x2="538" y2="151" stroke="#ef4444" stroke-width="1.2"/>
  <line x1="535" y1="138" x2="541" y2="138" stroke="#ef4444" stroke-width="1"/>
  <line x1="535" y1="151" x2="541" y2="151" stroke="#ef4444" stroke-width="1"/>

  <!-- legend inside posterior box -->
  <rect x="502" y="157" width="8" height="8" rx="1" fill="#10b981" opacity="0.85"/>
  <text x="513" y="164" font-size="7" fill="#64748b">observed</text>
  <rect x="502" y="170" width="8" height="8" rx="1" fill="#6366f1" opacity="0.85"/>
  <text x="513" y="177" font-size="7" fill="#64748b">positive transfer (Σ &gt; 0)</text>
  <rect x="502" y="183" width="8" height="8" rx="1" fill="#ef4444" opacity="0.85"/>
  <text x="513" y="190" font-size="7" fill="#64748b">negative transfer (Σ &lt; 0)</text>
  </g>

  <!-- arrow posterior → downstream -->
  <line x1="636" y1="125" x2="654" y2="125" stroke="#475569" stroke-width="1.6" marker-end="url(#a)"/>

  <!-- ══════ BOX 5: DOWNSTREAM ══════ -->
  <!-- subtle grouping background -->
  <rect x="656" y="46" width="188" height="162" rx="7" fill="none" stroke="#94a3b8" stroke-width="1.5" stroke-dasharray="5,3"/>
  <g transform="translate(-8,0)">
  <!-- clean Y-fork: single vertical stem, two horizontal branches -->
  <line x1="668" y1="80"  x2="668" y2="170" stroke="#475569" stroke-width="1.8"/>
  <line x1="668" y1="80"  x2="676" y2="80"  stroke="#475569" stroke-width="1.8" marker-end="url(#a)"/>
  <line x1="668" y1="170" x2="676" y2="170" stroke="#475569" stroke-width="1.8" marker-end="url(#a)"/>

  <rect x="678" y="56"  width="160" height="48" rx="6" fill="#fef9c3" stroke="#ca8a04" stroke-width="1.3"/>
  <!-- orchestrator icon: central hub circle + 3 spokes to agent dots -->
  <circle cx="697" cy="80" r="7" fill="#d4622b" opacity="0.85"/>
  <line x1="704" y1="75" x2="713" y2="69" stroke="#d4622b" stroke-width="1.4"/>
  <line x1="704" y1="80" x2="715" y2="80" stroke="#d4622b" stroke-width="1.4"/>
  <line x1="704" y1="85" x2="713" y2="91" stroke="#d4622b" stroke-width="1.4"/>
  <circle cx="715" cy="69" r="4" fill="#6366f1" opacity="0.8"/>
  <circle cx="717" cy="80" r="4" fill="#10b981" opacity="0.8"/>
  <circle cx="715" cy="91" r="4" fill="#6366f1" opacity="0.6"/>
  <text x="748" y="77"  text-anchor="middle" font-size="9" fill="#92400e" font-weight="bold">Task</text>
  <text x="748" y="90"  text-anchor="middle" font-size="9" fill="#92400e" font-weight="bold">Allocation</text>

  <rect x="678" y="146" width="160" height="48" rx="6" fill="#f3e8ff" stroke="#a855f7" stroke-width="1.3"/>
  <!-- team icon: 3 person circles -->
  <circle cx="690" cy="170" r="7" fill="#a855f7" opacity="0.75"/>
  <circle cx="702" cy="170" r="7" fill="#a855f7" opacity="0.55"/>
  <circle cx="714" cy="170" r="7" fill="#a855f7" opacity="0.38"/>
  <text x="752" y="165" text-anchor="middle" font-size="9" fill="#6b21a8" font-weight="bold">Team</text>
  <text x="752" y="178" text-anchor="middle" font-size="9" fill="#6b21a8" font-weight="bold">Formation</text>
  </g>

</svg>
